<svg width="40" height="41" viewBox="0 0 40 41" fill="none" xmlns="http://www.w3.org/2000/svg">
<rect y="0.578369" width="40" height="40" rx="20" fill="white"/>
<path d="M21.0281 10.5794C21.7578 10.5766 22.4875 10.5839 23.2171 10.6014L23.4111 10.6084C23.6351 10.6164 23.8561 10.6264 24.1231 10.6384C25.1871 10.6884 25.9131 10.8564 26.5501 11.1034C27.2101 11.3574 27.7661 11.7014 28.3221 12.2574C28.8304 12.757 29.2239 13.3613 29.4751 14.0284C29.7221 14.6654 29.8901 15.3924 29.9401 16.4564C29.9521 16.7224 29.9621 16.9444 29.9701 17.1684L29.9761 17.3624C29.9938 18.0915 30.0015 18.821 29.9991 19.5504L30.0001 20.2964V21.6064C30.0025 22.3361 29.9949 23.0658 29.9771 23.7954L29.9711 23.9894C29.9631 24.2134 29.9531 24.4344 29.9411 24.7014C29.8911 25.7654 29.7211 26.4914 29.4751 27.1284C29.2247 27.7961 28.8312 28.401 28.3221 28.9004C27.822 29.4087 27.2174 29.8021 26.5501 30.0534C25.9131 30.3004 25.1871 30.4684 24.1231 30.5184C23.8561 30.5304 23.6351 30.5404 23.4111 30.5484L23.2171 30.5544C22.4875 30.5721 21.7578 30.5798 21.0281 30.5774L20.2821 30.5784H18.9731C18.2433 30.5808 17.5136 30.5732 16.7841 30.5554L16.5901 30.5494C16.3527 30.5408 16.1153 30.5308 15.8781 30.5194C14.8141 30.4694 14.0881 30.2994 13.4501 30.0534C12.7827 29.8027 12.1783 29.4092 11.6791 28.9004C11.1701 28.4006 10.7763 27.7959 10.5251 27.1284C10.2781 26.4914 10.1101 25.7654 10.0601 24.7014C10.0489 24.4641 10.0389 24.2267 10.0301 23.9894L10.0251 23.7954C10.0066 23.0658 9.99829 22.3361 10.0001 21.6064V19.5504C9.99727 18.821 10.0046 18.0916 10.0221 17.3624L10.0291 17.1684C10.0371 16.9444 10.0471 16.7224 10.0591 16.4564C10.1091 15.3914 10.2771 14.6664 10.5241 14.0284C10.7754 13.361 11.17 12.7568 11.6801 12.2584C12.179 11.7491 12.783 11.3549 13.4501 11.1034C14.0881 10.8564 14.8131 10.6884 15.8781 10.6384L16.5901 10.6084L16.7841 10.6034C17.5132 10.5849 18.2426 10.5766 18.9721 10.5784L21.0281 10.5794ZM20.0001 15.5794C19.3376 15.57 18.6798 15.6924 18.065 15.9394C17.4503 16.1865 16.8907 16.5532 16.4189 17.0184C15.9471 17.4836 15.5725 18.0379 15.3167 18.6491C15.061 19.2603 14.9293 19.9163 14.9293 20.5789C14.9293 21.2414 15.061 21.8974 15.3167 22.5086C15.5725 23.1198 15.9471 23.6741 16.4189 24.1393C16.8907 24.6045 17.4503 24.9712 18.065 25.2183C18.6798 25.4653 19.3376 25.5877 20.0001 25.5784C21.3261 25.5784 22.5979 25.0516 23.5356 24.1139C24.4733 23.1762 25.0001 21.9044 25.0001 20.5784C25.0001 19.2523 24.4733 17.9805 23.5356 17.0428C22.5979 16.1051 21.3261 15.5794 20.0001 15.5794ZM20.0001 17.5794C20.3986 17.572 20.7945 17.6442 21.1649 17.7916C21.5352 17.939 21.8724 18.1587 22.1568 18.4379C22.4413 18.7171 22.6672 19.0502 22.8215 19.4177C22.9758 19.7852 23.0553 20.1798 23.0553 20.5783C23.0554 20.9769 22.976 21.3715 22.8219 21.7391C22.6677 22.1066 22.4419 22.4398 22.1576 22.7191C21.8732 22.9984 21.536 23.2182 21.1658 23.3658C20.7955 23.5133 20.3996 23.5856 20.0011 23.5784C19.2054 23.5784 18.4423 23.2623 17.8797 22.6997C17.3171 22.1371 17.0011 21.374 17.0011 20.5784C17.0011 19.7827 17.3171 19.0196 17.8797 18.457C18.4423 17.8944 19.2054 17.5784 20.0011 17.5784L20.0001 17.5794ZM25.2501 14.0794C24.9275 14.0923 24.6224 14.2295 24.3987 14.4623C24.175 14.6951 24.05 15.0055 24.05 15.3284C24.05 15.6512 24.175 15.9616 24.3987 16.1944C24.6224 16.4272 24.9275 16.5644 25.2501 16.5774C25.5816 16.5774 25.8995 16.4457 26.1339 16.2112C26.3684 15.9768 26.5001 15.6589 26.5001 15.3274C26.5001 14.9958 26.3684 14.6779 26.1339 14.4435C25.8995 14.2091 25.5816 14.0774 25.2501 14.0774V14.0794Z" fill="#151515"/>
</svg>
