<svg width="40" height="41" viewBox="0 0 40 41" fill="none" xmlns="http://www.w3.org/2000/svg">
<rect y="0.578369" width="40" height="40" rx="20" fill="white"/>
<path d="M14.47 13.5789C14.4697 14.1093 14.2588 14.6179 13.8835 14.9928C13.5082 15.3677 12.9994 15.5781 12.469 15.5779C11.9386 15.5776 11.43 15.3666 11.0551 14.9914C10.6802 14.6161 10.4697 14.1073 10.47 13.5769C10.4703 13.0464 10.6812 12.5378 11.0565 12.163C11.4318 11.7881 11.9406 11.5776 12.471 11.5779C13.0014 11.5781 13.51 11.7891 13.8849 12.1644C14.2598 12.5396 14.4703 13.0484 14.47 13.5789ZM14.53 17.0589H10.53V29.5789H14.53V17.0589ZM20.85 17.0589H16.87V29.5789H20.81V23.0089C20.81 19.3489 25.58 19.0089 25.58 23.0089V29.5789H29.53V21.6489C29.53 15.4789 22.47 15.7089 20.81 18.7389L20.85 17.0589Z" fill="#151515"/>
</svg>
