<svg width="24" height="25" viewBox="0 0 24 25" fill="none" xmlns="http://www.w3.org/2000/svg">
<path d="M4 20.9714C3.45 20.9714 2.979 20.7754 2.587 20.3834C2.195 19.9914 1.99934 19.5208 2 18.9714V6.97144C2 6.42144 2.196 5.95044 2.588 5.55844C2.98 5.16644 3.45067 4.97077 4 4.97144H20C20.55 4.97144 21.021 5.16744 21.413 5.55944C21.805 5.95144 22.0007 6.4221 22 6.97144V18.9714C22 19.5214 21.804 19.9924 21.412 20.3844C21.02 20.7764 20.5493 20.9721 20 20.9714H4ZM12 13.9714L20 8.97144V6.97144L12 11.9714L4 6.97144V8.97144L12 13.9714Z" fill="#EF4353"/>
</svg>
