<svg width="24" height="25" viewBox="0 0 24 25" fill="none" xmlns="http://www.w3.org/2000/svg">
<path d="M19.23 16.2314L16.69 15.9414C16.3914 15.9064 16.0886 15.9394 15.8046 16.0382C15.5206 16.1369 15.2626 16.2987 15.05 16.5114L13.21 18.3514C10.3712 16.9077 8.06382 14.6003 6.62004 11.7614L8.47004 9.91145C8.90004 9.48145 9.11004 8.88145 9.04004 8.27145L8.75004 5.75145C8.69335 5.26362 8.45923 4.81368 8.09228 4.48729C7.72532 4.16091 7.25115 3.98086 6.76004 3.98145H5.03004C3.90004 3.98145 2.96004 4.92145 3.03004 6.05145C3.56004 14.5914 10.39 21.4114 18.92 21.9414C20.05 22.0114 20.99 21.0714 20.99 19.9414V18.2114C21 17.2014 20.24 16.3514 19.23 16.2314Z" fill="#EF4353"/>
</svg>
