<svg width="28" height="28" viewBox="0 0 28 28" fill="none" xmlns="http://www.w3.org/2000/svg">
<path fill-rule="evenodd" clip-rule="evenodd" d="M2.61863 25.3813C4.57329 27.3333 7.71463 27.3333 14 27.3333C20.2853 27.3333 23.428 27.3333 25.38 25.38C27.3333 23.4293 27.3333 20.2853 27.3333 14C27.3333 7.71467 27.3333 4.572 25.38 2.61867C23.4293 0.666666 20.2853 0.666666 14 0.666666C7.71463 0.666666 4.57196 0.666666 2.61863 2.61867C0.666626 4.57333 0.666626 7.71467 0.666626 14C0.666626 20.2853 0.666626 23.4293 2.61863 25.3813ZM23 19.3333C23 19.5985 22.8946 19.8529 22.7071 20.0404C22.5195 20.228 22.2652 20.3333 22 20.3333H5.99996C5.73474 20.3333 5.48039 20.228 5.29285 20.0404C5.10532 19.8529 4.99996 19.5985 4.99996 19.3333C4.99996 19.0681 5.10532 18.8138 5.29285 18.6262C5.48039 18.4387 5.73474 18.3333 5.99996 18.3333H22C22.2652 18.3333 22.5195 18.4387 22.7071 18.6262C22.8946 18.8138 23 19.0681 23 19.3333ZM22 15C22.2652 15 22.5195 14.8946 22.7071 14.7071C22.8946 14.5196 23 14.2652 23 14C23 13.7348 22.8946 13.4804 22.7071 13.2929C22.5195 13.1054 22.2652 13 22 13H5.99996C5.73474 13 5.48039 13.1054 5.29285 13.2929C5.10532 13.4804 4.99996 13.7348 4.99996 14C4.99996 14.2652 5.10532 14.5196 5.29285 14.7071C5.48039 14.8946 5.73474 15 5.99996 15H22ZM23 8.66667C23 8.93188 22.8946 9.18624 22.7071 9.37377C22.5195 9.56131 22.2652 9.66667 22 9.66667H5.99996C5.73474 9.66667 5.48039 9.56131 5.29285 9.37377C5.10532 9.18624 4.99996 8.93188 4.99996 8.66667C4.99996 8.40145 5.10532 8.1471 5.29285 7.95956C5.48039 7.77202 5.73474 7.66667 5.99996 7.66667H22C22.2652 7.66667 22.5195 7.77202 22.7071 7.95956C22.8946 8.1471 23 8.40145 23 8.66667Z" fill="#151515"/>
</svg>
