<svg width="32" height="32" viewBox="0 0 32 32" fill="none" xmlns="http://www.w3.org/2000/svg">
<path d="M0 16C0 7.16343 7.16344 -1.52588e-05 16 -1.52588e-05C24.8366 -1.52588e-05 32 7.16343 32 16C32 24.8365 24.8366 32 16 32C7.16344 32 0 24.8365 0 16Z" fill="#DDD0DA"/>
<path d="M10 25V23C10 21.9391 10.4214 20.9217 11.1716 20.1716C11.9217 19.4214 12.9391 19 14 19H18C19.0609 19 20.0783 19.4214 20.8284 20.1716C21.5786 20.9217 22 21.9391 22 23V25M12 11C12 12.0609 12.4214 13.0783 13.1716 13.8284C13.9217 14.5786 14.9391 15 16 15C17.0609 15 18.0783 14.5786 18.8284 13.8284C19.5786 13.0783 20 12.0609 20 11C20 9.93912 19.5786 8.9217 18.8284 8.17156C18.0783 7.42141 17.0609 6.99998 16 6.99998C14.9391 6.99998 13.9217 7.42141 13.1716 8.17156C12.4214 8.9217 12 9.93912 12 11Z" stroke="#571244" stroke-width="2" stroke-linecap="round" stroke-linejoin="round"/>
</svg>
